<svg xmlns:xlink="http://www.w3.org/1999/xlink" width="46" xmlns="http://www.w3.org/2000/svg" height="46" id="screenshot-c82ddd3c-261f-808d-8001-7f6c2084c416" viewBox="-0 -0 46 46" style="-webkit-print-color-adjust: exact;" fill="none" version="1.1"><g id="shape-c82ddd3c-261f-808d-8001-7f6c2084c416"><defs><clipPath id="frame-clip-c82ddd3c-261f-808d-8001-7f6c2084c416-3b49d286-ed9b-8080-8001-7f6c581d4c41" class="frame-clip"><rect rx="0" ry="0" x="0" y="0" width="45.99994172432025" height="45.999999167008355" transform="matrix(1,0.000001,0,1,-0.000001,-0.000021)"/></clipPath></defs><g clip-path="url(#frame-clip-c82ddd3c-261f-808d-8001-7f6c2084c416-3b49d286-ed9b-8080-8001-7f6c581d4c41)"><clipPath id="frame-clip-c82ddd3c-261f-808d-8001-7f6c2084c416-3b49d286-ed9b-8080-8001-7f6c581d4c41" class="frame-clip"><rect rx="0" ry="0" x="0" y="0" width="45.99994172432025" height="45.999999167008355" transform="matrix(1,0.000001,0,1,-0.000001,-0.000021)"/></clipPath><g id="fills-c82ddd3c-261f-808d-8001-7f6c2084c416"><rect rx="0" ry="0" x="0" y="0" transform="matrix(1,0.000001,0,1,-0.000001,-0.000021)" width="45.99994172432025" height="45.999999167008355" class="frame-background"/></g><g class="frame-children"><g id="shape-c82ddd3c-261f-808d-8001-7f6c29da8c8b" rx="0" ry="0" style="fill: rgb(0, 0, 0);"><g id="shape-c82ddd3c-261f-808d-8001-7f6c29dad84a"><g id="fills-c82ddd3c-261f-808d-8001-7f6c29dad84a"><path rx="0" ry="0" d="M0,23C0,19.848,0.602,16.868,1.807,14.064C3.01,11.255,4.654,8.819,6.738,6.734C8.819,4.657,11.26,3.006,14.063,1.805C16.865,0.599,19.845,0,22.998,0C26.155,0,29.133,0.598,31.939,1.805C34.747,3.006,37.185,4.658,39.267,6.734C41.35,8.82,42.99,11.256,44.197,14.064C45.397,16.868,46,19.847,46,23C46,26.157,45.398,29.135,44.197,31.943C42.99,34.743,41.349,37.189,39.267,39.266C37.185,41.351,34.746,42.996,31.939,44.195C29.133,45.403,26.155,46,22.998,46C19.845,46,16.865,45.403,14.063,44.195C11.26,42.996,8.819,41.35,6.738,39.266C4.654,37.188,3.01,34.742,1.807,31.943C0.602,29.135,0,26.158,0,23ZZ" style="fill: rgb(0, 0, 0); fill-opacity: 1;"/></g></g><g id="shape-c82ddd3c-261f-808d-8001-7f6c29dad84b"><g id="fills-c82ddd3c-261f-808d-8001-7f6c29dad84b"><path rx="0" ry="0" d="M28.143,19.474L19.321,21.826C18.554,22.035,17.771,21.597,17.565,20.844L16.049,15.34C15.845,14.593,16.291,13.819,17.052,13.622L25.872,11.258L25.183,8.774L25.193,8.774C25.101,8.443,25.131,8.082,25.299,7.754C25.667,7.068,26.529,6.802,27.229,7.158L36.229,11.831L36.238,11.834L36.238,11.834C36.267,11.854,36.298,11.862,36.329,11.883C36.997,12.294,37.199,13.158,36.786,13.814L31.465,22.254C31.286,22.586,30.975,22.845,30.579,22.951C29.818,23.153,29.034,22.712,28.828,21.963L28.143,19.474ZZ" style="fill: rgb(255, 255, 255); fill-opacity: 1;"/></g></g><g id="shape-c82ddd3c-261f-808d-8001-7f6c29dad84c"><g id="fills-c82ddd3c-261f-808d-8001-7f6c29dad84c"><path rx="0" ry="0" d="M16.859,25.536L25.681,23.172C26.441,22.967,27.224,23.405,27.429,24.164L28.951,29.657C29.155,30.415,28.707,31.185,27.947,31.388L19.123,33.743L19.812,36.232L19.811,36.232C19.902,36.564,19.873,36.924,19.695,37.252C19.33,37.94,18.466,38.195,17.775,37.841L8.768,33.173L8.765,33.173L8.765,33.173C8.73,33.156,8.702,33.136,8.67,33.114C8.006,32.714,7.8,31.842,8.214,31.184L13.532,22.741C13.71,22.415,14.023,22.154,14.42,22.052C15.18,21.843,15.963,22.286,16.17,23.041L16.859,25.536ZZ" style="fill: rgb(255, 255, 255); fill-opacity: 1;"/></g></g></g></g></g></g></svg>