<?xml version="1.0" encoding="UTF-8" standalone="no" ?>
<!DOCTYPE svg PUBLIC "-//W3C//DTD SVG 1.1//EN" "http://www.w3.org/Graphics/SVG/1.1/DTD/svg11.dtd">
<svg xmlns="http://www.w3.org/2000/svg" xmlns:xlink="http://www.w3.org/1999/xlink" version="1.1" width="150" height="150" viewBox="0 0 300 300" xml:space="preserve">
<desc>Created with Fabric.js 4.6.0</desc>
<defs>
</defs>
<g transform="matrix(0.54 0 0 0.54 147.03 150)" id="uMCVd23ePo7sbF1N8gs2f"  >
<path style="stroke: rgb(67,41,140); stroke-width: 5; stroke-dasharray: none; stroke-linecap: butt; stroke-dashoffset: 0; stroke-linejoin: round; stroke-miterlimit: 2; fill: rgb(67,41,140); fill-rule: evenodd; opacity: 1;" vector-effect="non-scaling-stroke"  transform=" translate(-540, -3486.81)" d="M 345.135 3373.44 L 540 3260.93 L 734.865 3373.44 C 735.406 3373.75 735.74 3374.33 735.74 3374.95 L 735.74 3598.95 C 735.74 3599.58 735.406 3600.15 734.865 3600.47 L 540.875 3712.47 L 540.85 3712.48 L 540.824 3712.49 L 540.798 3712.51 L 540.746 3712.53 L 540.72 3712.55 L 540.693 3712.56 L 540.667 3712.57 L 540.532 3712.62 L 540.504 3712.63 L 540.477 3712.64 L 540.449 3712.64 L 540.422 3712.65 L 540.394 3712.66 L 540.366 3712.66 L 540.338 3712.67 L 540.31 3712.67 L 540.282 3712.68 L 540.254 3712.68 L 540.226 3712.69 L 540.165 3712.69 L 540.138 3712.7 L 539.858 3712.7 L 539.83 3712.69 L 539.774 3712.69 L 539.746 3712.68 L 539.718 3712.68 L 539.69 3712.67 L 539.662 3712.67 L 539.634 3712.66 L 539.606 3712.66 L 539.578 3712.65 L 539.551 3712.64 L 539.523 3712.64 L 539.496 3712.63 L 539.468 3712.62 L 539.333 3712.57 L 539.307 3712.56 L 539.28 3712.55 L 539.254 3712.53 L 539.202 3712.51 L 539.176 3712.49 L 539.15 3712.48 L 539.125 3712.47 L 345.135 3600.47 C 344.594 3600.15 344.26 3599.58 344.26 3598.95 L 344.26 3374.95 C 344.26 3374.33 344.594 3373.75 345.135 3373.44 Z M 347.76 3597.94 L 538.25 3707.92 L 538.25 3583.96 L 455.987 3536.47 C 455.445 3536.15 455.112 3535.58 455.112 3534.95 L 455.112 3439.96 L 347.76 3377.98 L 347.76 3597.94 Z M 624.888 3439.96 L 624.888 3535.96 L 541.75 3583.96 L 541.75 3707.92 L 732.24 3597.94 L 732.24 3377.98 L 624.888 3439.96 Z M 458.612 3533.94 L 538.25 3579.92 L 538.25 3487.96 L 458.612 3441.98 L 458.612 3533.94 Z M 621.388 3442.63 L 541.75 3488.61 L 541.75 3579.92 L 621.388 3533.94 L 621.388 3442.63 Z M 460.362 3438.95 L 540 3484.93 L 619.638 3438.95 L 540 3392.97 L 460.362 3438.95 Z M 540 3388.93 L 623.138 3436.93 L 730.49 3374.95 L 540 3264.97 L 349.51 3374.95 L 456.862 3436.93 L 540 3388.93 Z" stroke-linecap="round" />
</g>
</svg>