<?xml version="1.0" encoding="UTF-8"?>
<svg xmlns="http://www.w3.org/2000/svg" xmlns:xlink="http://www.w3.org/1999/xlink" viewBox="0 0 512 512" width="512px" height="512px">
<g id="surface82739806">
<path style=" stroke:none;fill-rule:nonzero;fill:rgb(100%,100%,100%);fill-opacity:1;" d="M 151.984375 120 C 76.988281 120.175781 16.289062 181.019531 16.289062 256.015625 C 16.289062 331.011719 76.988281 391.855469 151.984375 392.03125 C 226.980469 391.855469 287.679688 331.011719 287.679688 256.015625 C 287.679688 181.019531 226.980469 120.175781 151.984375 120 Z M 363.984375 128 C 326.484375 128.171875 296.132812 185.433594 296.132812 256.015625 C 296.132812 326.597656 326.484375 383.859375 363.984375 384.03125 C 401.484375 383.859375 431.835938 326.597656 431.835938 256.015625 C 431.835938 185.433594 401.484375 128.171875 363.984375 128 Z M 468 136 C 457.980469 135.890625 448.710938 158.742188 443.691406 195.921875 C 438.675781 233.097656 438.675781 278.933594 443.691406 316.109375 C 448.710938 353.289062 457.980469 376.140625 468 376.03125 C 478.019531 376.140625 487.289062 353.289062 492.308594 316.109375 C 497.324219 278.933594 497.324219 233.097656 492.308594 195.921875 C 487.289062 158.742188 478.019531 135.890625 468 136 Z M 468 136 "/>
</g>
</svg>
