<?xml version="1.0" encoding="UTF-8"?>
<svg xmlns="http://www.w3.org/2000/svg" xmlns:xlink="http://www.w3.org/1999/xlink" viewBox="0 0 500 500" width="500px" height="500px">
<g id="surface82790757">
<path style=" stroke:none;fill-rule:nonzero;fill:rgb(100%,100%,100%);fill-opacity:1;" d="M 250 20 C 377.03125 20 480 122.96875 480 250 C 480 377.03125 377.03125 480 250 480 C 122.96875 480 20 377.03125 20 250 C 20 122.96875 122.96875 20 250 20 Z M 329.339844 343.75 C 333.570312 330.769531 353.390625 201.410156 355.839844 175.921875 C 356.578125 168.199219 354.140625 163.070312 349.359375 160.78125 C 343.578125 158 335.019531 159.390625 325.089844 162.96875 C 311.46875 167.878906 137.351562 241.808594 127.289062 246.089844 C 117.75 250.140625 108.730469 254.558594 108.730469 260.960938 C 108.730469 265.460938 111.398438 267.988281 118.761719 270.621094 C 126.421875 273.351562 145.710938 279.199219 157.101562 282.339844 C 168.070312 285.371094 180.558594 282.738281 187.558594 278.390625 C 194.980469 273.78125 280.609375 216.480469 286.761719 211.460938 C 292.898438 206.441406 297.800781 212.871094 292.78125 217.898438 C 287.761719 222.921875 228.980469 279.96875 221.230469 287.871094 C 211.820312 297.460938 218.5 307.398438 224.808594 311.378906 C 232.019531 315.921875 283.871094 350.699219 291.679688 356.28125 C 299.488281 361.859375 307.410156 364.390625 314.660156 364.390625 C 321.910156 364.390625 325.730469 354.839844 329.339844 343.75 Z M 329.339844 343.75 "/>
</g>
</svg>
