<?xml version="1.0" encoding="UTF-8"?>
<svg xmlns="http://www.w3.org/2000/svg" xmlns:xlink="http://www.w3.org/1999/xlink" viewBox="0 0 512 512" width="512px" height="512px">
<g id="surface82849076">
<path style=" stroke:none;fill-rule:nonzero;fill:rgb(0%,0%,0%);fill-opacity:1;" d="M 425.527344 102.230469 C 425.527344 102.230469 501.335938 190.035156 501.335938 348.191406 L 501.335938 381.359375 C 501.335938 381.359375 405.601562 443.746094 376.421875 443.746094 L 348.121094 402.59375 C 365.710938 394.714844 389.707031 381.039062 389.707031 381.039062 L 380.941406 374.253906 C 380.941406 374.253906 324.847656 400.238281 256.011719 400.238281 C 187.171875 400.238281 131.082031 374.253906 131.082031 374.253906 L 122.3125 381.039062 C 122.3125 381.039062 146.308594 394.714844 163.902344 402.59375 L 135.597656 443.746094 C 106.402344 443.746094 10.667969 381.359375 10.667969 381.359375 L 10.667969 348.191406 C 10.667969 190.035156 86.476562 102.230469 86.476562 102.230469 C 86.476562 102.230469 138.332031 77.132812 186.21875 70.527344 L 201.074219 98.695312 C 201.074219 98.695312 224.6875 93.226562 256 93.226562 C 287.3125 93.226562 310.929688 98.695312 310.929688 98.695312 L 325.785156 70.527344 C 373.671875 77.132812 425.527344 102.230469 425.527344 102.230469 Z M 174.3125 325.085938 C 198.449219 325.085938 218 303.113281 218 276.007812 C 218 248.90625 198.4375 226.933594 174.3125 226.933594 C 150.1875 226.933594 130.625 248.90625 130.625 276.007812 C 130.625 303.113281 150.179688 325.085938 174.3125 325.085938 Z M 337.6875 325.085938 C 361.820312 325.085938 381.375 303.113281 381.375 276.007812 C 381.375 248.90625 361.8125 226.933594 337.6875 226.933594 C 313.554688 226.933594 294 248.90625 294 276.007812 C 294 303.113281 313.554688 325.085938 337.6875 325.085938 Z M 337.6875 325.085938 "/>
</g>
</svg>
